<?xml version="1.0" standalone="no"?>
<svg xmlns:xlink="http://www.w3.org/1999/xlink" id="wave" style="transform:rotate(0deg); transition: 0.3s" viewBox="0 0 1440 230" version="1.1" xmlns="http://www.w3.org/2000/svg"><defs><linearGradient id="sw-gradient-0" x1="0" x2="0" y1="1" y2="0"><stop stop-color="rgba(62, 98.895, 243, 1)" offset="0%"/><stop stop-color="rgba(127.307, 172.047, 237.203, 1)" offset="100%"/></linearGradient></defs><path style="transform:translate(0, 0px); opacity:1" fill="url(#sw-gradient-0)" d="M0,46L21.8,69C43.6,92,87,138,131,157.2C174.5,176,218,169,262,157.2C305.5,146,349,130,393,138C436.4,146,480,176,524,184C567.3,192,611,176,655,164.8C698.2,153,742,146,785,134.2C829.1,123,873,107,916,84.3C960,61,1004,31,1047,38.3C1090.9,46,1135,92,1178,107.3C1221.8,123,1265,107,1309,111.2C1352.7,115,1396,138,1440,130.3C1483.6,123,1527,84,1571,72.8C1614.5,61,1658,77,1702,76.7C1745.5,77,1789,61,1833,57.5C1876.4,54,1920,61,1964,72.8C2007.3,84,2051,100,2095,118.8C2138.2,138,2182,161,2225,168.7C2269.1,176,2313,169,2356,161C2400,153,2444,146,2487,138C2530.9,130,2575,123,2618,134.2C2661.8,146,2705,176,2749,184C2792.7,192,2836,176,2880,172.5C2923.6,169,2967,176,3011,149.5C3054.5,123,3098,61,3120,30.7L3141.8,0L3141.8,230L3120,230C3098.2,230,3055,230,3011,230C2967.3,230,2924,230,2880,230C2836.4,230,2793,230,2749,230C2705.5,230,2662,230,2618,230C2574.5,230,2531,230,2487,230C2443.6,230,2400,230,2356,230C2312.7,230,2269,230,2225,230C2181.8,230,2138,230,2095,230C2050.9,230,2007,230,1964,230C1920,230,1876,230,1833,230C1789.1,230,1745,230,1702,230C1658.2,230,1615,230,1571,230C1527.3,230,1484,230,1440,230C1396.4,230,1353,230,1309,230C1265.5,230,1222,230,1178,230C1134.5,230,1091,230,1047,230C1003.6,230,960,230,916,230C872.7,230,829,230,785,230C741.8,230,698,230,655,230C610.9,230,567,230,524,230C480,230,436,230,393,230C349.1,230,305,230,262,230C218.2,230,175,230,131,230C87.3,230,44,230,22,230L0,230Z"/></svg>